PathFileType	4	(X/Y/Z)	C:\Git\research_data\Projects\squatting_fais\c3dfiles\036\SJ_pre1\markers_experimental.trc
DataRate	CameraRate	NumFrames	NumMarkers	Units	OrigDataRate	OrigDataStartFrame	OrigNumFrames
200.000000	200.000000	4	62	mm	200.000000	275	2200
Frame#	Time	FHD			LBHD			RBHD			C7			T10			CLAV			LSHO			LUUPA			LMUPA			LDUPA			LLEP			LMEP			LRAD			LUL			LRFIN			RSHO			RUPA1			RMUPA			RDUPA			RLEP			RMEP			RRAD			RUL			RUFIN			LASI			RASI			USACR			LSACR			RSACR			LTHI1			LTHI2			LTHI3			LTHI4			LLFC			LMFC			LTIB1			LTIB2			LTIB3			LTIB4			LLMAL			LMMAL			LHEE			LMT1			LMT2			LMT5			RTHI			RTHI2			RTHI3			RTHI4			RLFC			RMFC			RTIB1			RTIB2			RTIB3			RTIB4			RLMAL			RMMAL			RHEE			RMT1			RMT2			RMT5			*61			
		X1	Y1	Z1	X2	Y2	Z2	X3	Y3	Z3	X4	Y4	Z4	X5	Y5	Z5	X6	Y6	Z6	X7	Y7	Z7	X8	Y8	Z8	X9	Y9	Z9	X10	Y10	Z10	X11	Y11	Z11	X12	Y12	Z12	X13	Y13	Z13	X14	Y14	Z14	X15	Y15	Z15	X16	Y16	Z16	X17	Y17	Z17	X18	Y18	Z18	X19	Y19	Z19	X20	Y20	Z20	X21	Y21	Z21	X22	Y22	Z22	X23	Y23	Z23	X24	Y24	Z24	X25	Y25	Z25	X26	Y26	Z26	X27	Y27	Z27	X28	Y28	Z28	X29	Y29	Z29	X30	Y30	Z30	X31	Y31	Z31	X32	Y32	Z32	X33	Y33	Z33	X34	Y34	Z34	X35	Y35	Z35	X36	Y36	Z36	X37	Y37	Z37	X38	Y38	Z38	X39	Y39	Z39	X40	Y40	Z40	X41	Y41	Z41	X42	Y42	Z42	X43	Y43	Z43	X44	Y44	Z44	X45	Y45	Z45	X46	Y46	Z46	X47	Y47	Z47	X48	Y48	Z48	X49	Y49	Z49	X50	Y50	Z50	X51	Y51	Z51	X52	Y52	Z52	X53	Y53	Z53	X54	Y54	Z54	X55	Y55	Z55	X56	Y56	Z56	X57	Y57	Z57	X58	Y58	Z58	X59	Y59	Z59	X60	Y60	Z60	X61	Y61	Z61	X62	Y62	Z62	

276	1.375	-192.6539001464844	1548.403930664063	-905.632263183594	-349.7286987304688	1467.732177734375	-962.4508056640627	-290.6476440429688	1479.4560546875	-822.7883911132815	-373.8851623535157	1371.847900390625	-933.157653808594	-390.4544067382814	1062.168579101563	-928.0111083984377	-227.0867309570313	1310.011474609375	-920.0596313476565	-268.5300292968751	1354.249877929688	-1065.889282226563	-322.5698852539063	1234.055297851563	-1201.744506835938	-291.5491943359376	1195.436401367188	-1202.131469726563	-335.9882812500001	1175.8525390625	-1238.15966796875	-341.4857177734376	1120.5244140625	-1254.616577148438	-400.6174621582032	1112.765014648438	-1221.734130859375	-239.1982879638672	913.4087524414065	-1201.350219726563	-271.2853698730469	933.5323486328127	-1142.619262695313	-238.4407196044922	883.097595214844	-1112.20654296875	-278.4086914062501	1345.660888671875	-769.1099243164065	-338.0379333496094	1239.336181640625	-653.1730957031251	-300.6032104492188	1207.98876953125	-645.9285278320314	-342.2002868652344	1183.010620117188	-611.6672363281251	-340.4754638671876	1114.395263671875	-584.5183105468751	-396.1306457519532	1086.030029296875	-629.5969848632814	-254.3182220458985	937.455261230469	-701.7342529296876	-215.0071563720704	923.5998535156252	-649.2811279296876	-221.0602569580079	897.2519531250002	-741.5543823242189	-207.6960906982422	872.5122070312502	-1054.756713867188	-203.624496459961	882.712341308594	-785.6048583984377	-392.3807373046876	980.712341308594	-928.358337402344	-413.4430236816407	954.009460449219	-952.6016845703127	-409.2119140625001	958.1197509765627	-896.963317871094	-304.5621032714844	747.6045532226564	-1133.12646484375	-283.4829406738282	665.4696044921876	-1136.11767578125	-239.7983398437501	663.9394531250001	-1118.011108398438	-319.1783447265626	617.9079589843751	-1136.5927734375	-374.7473754882813	468.9721679687501	-1123.676879882813	-364.9650573730469	420.6015930175782	-976.473083496094	-302.4457702636719	287.1243591308594	-1067.8837890625	-324.5712280273438	252.9008941650391	-1145.858154296875	-300.6531066894532	245.7172393798829	-1107.136596679688	-300.1948852539063	162.8703765869141	-1086.577758789063	-346.5462036132813	82.26773071289064	-1148.24365234375	-327.6939697265626	85.76623535156251	-1065.080444335938	-397.3450622558595	54.72620391845705	-1114.505859375	-208.2065734863282	56.16441345214845	-1073.782348632813	-193.8759918212891	55.69883728027345	-1120.145141601563	-230.9829864501954	33.53989410400391	-1171.559692382813	-344.5895080566407	711.4595336914064	-708.2529907226564	-309.3919372558594	654.7022705078126	-698.9599609375001	-276.2510681152344	656.7109375000001	-700.4024047851564	-338.4945068359376	576.9190673828126	-704.8600463867189	-336.2565002441407	464.0597229003907	-707.6315307617189	-310.7789306640626	440.1006469726564	-851.6743774414065	-293.0225830078126	308.7850036621094	-726.2927856445314	-364.2316589355469	238.1138458251954	-675.7794189453126	-319.4937438964844	234.2144012451172	-690.0089721679689	-307.6145935058594	181.4380493164063	-715.0436401367189	-380.6762084960938	82.30814361572267	-688.9989624023439	-342.0186767578126	88.82007598876955	-763.5568237304689	-418.4100341796876	53.38429260253908	-731.1032714843751	-221.4017181396485	55.25811767578126	-730.4949951171876	-224.2556304931641	57.55722427368165	-680.3663940429689	-266.8052673339844	33.7098731994629	-637.7030639648439	nan	nan	nan	
277	1.38	-192.593734741211	1548.358154296875	-905.7618408203127	-349.7743530273438	1467.826416015625	-962.991638183594	-291.1457214355469	1479.700073242188	-823.0110473632815	-373.9502868652344	1371.765502929688	-933.1843261718752	-390.3847656250001	1062.126098632813	-927.804626464844	-227.0826416015626	1310.015258789063	-920.1365966796877	-268.7242126464844	1354.113403320313	-1065.920532226563	-322.8716430664063	1233.864013671875	-1201.6796875	-291.7521972656251	1195.269653320313	-1202.05224609375	-336.2483520507813	1175.660278320313	-1238.065795898438	-341.7258911132813	1120.288452148438	-1254.54248046875	-400.9436645507814	1112.511596679688	-1221.479736328125	-239.2438659667969	913.3049926757815	-1201.206665039063	-271.3688049316407	933.3906860351565	-1142.421875	-238.3587646484376	882.998229980469	-1112.035034179688	-278.3634033203126	1345.66845703125	-769.1152343750002	-337.7371826171876	1239.403686523438	-653.1730346679689	-300.3933715820313	1208.058715820313	-645.8779907226564	-342.0065307617188	1183.080078125	-611.6257934570314	-340.2523803710938	1114.51025390625	-584.3867797851564	-395.9659118652345	1086.040405273438	-629.4634399414064	-254.0843658447266	937.467468261719	-701.5529174804689	-214.8352355957032	923.6014404296877	-649.1136474609376	-220.8731842041016	897.2564086914065	-741.3818969726564	-207.6667938232422	872.4514160156252	-1054.600219726563	-203.5697937011719	882.6814575195315	-785.4643554687502	-392.2726135253907	980.8616943359377	-928.1600341796877	-413.3982238769532	953.9297485351565	-952.3220825195315	-409.1272888183595	958.0882568359377	-896.7324829101565	-304.4733886718751	747.4162597656251	-1132.932739257813	-283.3963317871094	665.4284667968751	-1135.9111328125	-239.9212493896485	663.9332885742189	-1117.85595703125	-319.0933837890626	617.9146728515626	-1136.362548828125	-374.2818603515626	469.0240783691407	-1123.576171875	-364.9722900390626	420.5056457519532	-976.228942871094	-302.3619689941407	287.0961914062501	-1067.7724609375	-324.8835754394532	252.8491973876954	-1145.412475585938	-300.6448669433594	245.7893981933594	-1107.05859375	-300.1754455566407	162.9418334960938	-1086.466674804688	-346.4476318359376	82.23831939697267	-1148.195068359375	-327.6834106445313	85.76496887207033	-1065.016479492188	-397.3431701660157	54.71261215209962	-1114.48583984375	-208.4001617431641	56.23460388183595	-1073.77294921875	-194.1253967285157	55.70640182495119	-1120.239868164063	-231.0505371093751	33.5565528869629	-1171.611572265625	-344.3491821289063	711.4329223632814	-707.9827880859376	-309.2031250000001	654.6691284179689	-698.7866821289064	-276.0725708007813	656.6605834960939	-700.3669433593751	-338.3753051757813	576.8955688476564	-704.7221679687501	-336.3166503906251	464.015594482422	-707.6476440429689	-310.9611511230469	440.1070251464845	-851.6804199218752	-293.1994323730469	308.8227233886719	-726.2503051757814	-364.1929321289063	238.0724334716797	-675.7911987304689	-319.5381469726563	234.2298889160157	-690.0335083007814	-307.7203979492188	181.4528503417969	-715.0780029296876	-380.6639709472657	82.2960891723633	-688.9947509765626	-341.9849548339844	88.83499145507814	-763.5715332031251	-418.419647216797	53.36943435668947	-731.1032714843751	-221.3722229003907	55.24798965454103	-730.4971313476564	-224.3124694824219	57.51167678833009	-680.4130249023439	-266.6531982421876	33.89283752441407	-637.6084594726564	nan	nan	nan	
278	1.385	-192.5774841308594	1548.281127929688	-905.852478027344	-349.7081604003907	1467.921264648438	-963.3563232421877	-291.5417480468751	1479.805297851563	-823.3175048828127	-373.9358215332032	1371.677856445313	-933.1716308593752	-390.2718200683595	1062.058959960938	-927.5393676757815	-227.0988769531251	1309.941650390625	-920.1680908203127	-268.9299011230469	1354.023559570313	-1065.991088867188	-323.1683349609376	1233.670288085938	-1201.616577148438	-291.2919006347657	1195.470825195313	-1202.753295898438	-336.5903625488282	1175.445190429688	-1237.954223632813	-342.3845214843751	1120.123413085938	-1254.509887695313	-401.0839233398439	1112.226196289063	-1221.3154296875	-239.1295623779297	913.1778564453127	-1201.109985351563	-271.4176330566407	933.2834472656252	-1142.2099609375	-238.4510040283204	882.8699951171877	-1111.822021484375	-278.3096923828126	1345.685546875	-769.142517089844	-337.4917297363282	1239.446899414063	-653.1061401367189	-300.2162170410157	1208.13525390625	-645.8406372070314	-341.8450927734376	1183.1455078125	-611.5105590820314	-340.0249023437501	1114.603271484375	-584.2521972656251	-395.673797607422	1086.130493164063	-629.3694458007814	-253.8174591064454	937.4803466796877	-701.3615722656251	-214.5625305175782	923.7072753906252	-648.8797607421876	-220.5646057128907	897.2957763671877	-741.1943359375001	-207.502426147461	872.4954223632815	-1054.384399414063	-203.4385528564454	882.6461181640627	-785.2945556640627	-392.2213134765626	980.8128662109377	-927.8739013671877	-413.0151977539064	953.7386474609377	-952.4136352539065	-409.0362548828126	958.0533447265627	-896.409118652344	-304.5032348632813	747.4228515625001	-1132.703125	-283.3392028808594	665.3851318359376	-1135.649169921875	-239.8629302978516	663.9413452148439	-1117.695678710938	-319.0809326171876	617.8304443359376	-1136.146850585938	-374.1394042968751	468.9446716308595	-1123.341918945313	-365.1677856445313	420.3651123046876	-976.2045898437502	-302.3218078613282	287.0906982421876	-1067.68603515625	-324.8627319335938	252.9048614501954	-1145.338256835938	-300.6422119140626	245.7707672119141	-1106.993041992188	-300.1507873535157	162.8006744384766	-1086.430908203125	-346.4920043945313	82.30625915527345	-1148.138549804688	-327.6334228515626	85.74822235107423	-1064.9755859375	-397.634735107422	54.94654083251955	-1114.279541015625	-208.4270629882813	56.19026565551759	-1073.782836914063	-193.869369506836	55.66323089599611	-1120.15625	-231.1175994873047	33.53997421264649	-1171.608276367188	-344.1374511718751	711.3880004882814	-707.7239379882814	-309.0780639648438	654.6176147460939	-698.6726074218751	-275.9920959472657	656.6502075195314	-700.2734985351564	-338.3335876464844	576.8742065429689	-704.6154174804689	-336.3574523925782	463.9586791992189	-707.5840454101564	-311.1866149902344	440.152801513672	-851.6956176757815	-293.3565063476563	308.7813415527344	-726.2474975585939	-364.2746887207032	238.0384674072266	-675.8361206054689	-319.5917053222657	234.2066955566407	-690.0333862304689	-307.7062988281251	181.4176788330078	-715.1563720703126	-380.7009887695313	82.32280731201173	-689.0103759765626	-342.0710754394532	88.77816009521486	-763.6467285156251	-418.4792785644532	53.34321212768556	-731.1606445312501	-221.3835144042969	55.28021240234376	-730.5407714843751	-224.3145141601563	57.57556533813478	-680.4422607421876	-266.8119201660157	33.72954177856446	-637.6971435546876	nan	nan	nan	
279	1.39	-192.5899658203126	1548.188842773438	-906.037292480469	-349.5594482421876	1468.00537109375	-963.8542480468752	-291.8938293457032	1480.001953125	-823.639343261719	-373.9109497070313	1371.614624023438	-933.1630859375002	-390.1589965820314	1062.003295898438	-927.249206542969	-227.1013641357422	1309.94091796875	-920.1675415039065	-269.1778259277344	1353.839233398438	-1066.0048828125	-323.3808898925782	1233.505615234375	-1201.528686523438	-291.4992065429688	1195.213745117188	-1202.719604492188	-336.9415893554688	1175.382080078125	-1237.846557617188	-342.2007751464844	1119.839233398438	-1254.301391601563	-401.365692138672	1112.014770507813	-1221.069580078125	-239.3141021728516	913.1548461914065	-1200.953735351563	-271.4087524414063	933.1457519531252	-1142.045043945313	-238.3842163085938	882.858337402344	-1111.596557617188	-278.3034973144532	1345.709594726563	-769.1330566406252	-337.3121337890626	1239.450073242188	-653.0746459960939	-299.8401794433594	1208.225463867188	-645.7501831054689	-341.6312255859376	1183.175170898438	-611.4898071289064	-339.8122863769532	1114.700073242188	-584.1499023437501	-395.4686584472657	1086.1669921875	-629.2607421875001	-253.6545410156251	937.466491699219	-701.1419677734376	-214.4039611816407	923.7207031250002	-648.6978759765626	-220.3281555175782	897.2714843750002	-740.9759521484376	-207.5710144042969	872.4437255859377	-1054.257934570313	-203.2556610107422	882.7413330078127	-785.090270996094	-392.1174926757814	980.7532348632815	-927.5736083984377	-412.9501037597657	953.662536621094	-952.1572875976565	-409.144989013672	958.093688964844	-896.1783447265627	-304.6212463378907	747.5230102539064	-1132.44384765625	-283.3369140625001	665.3776245117189	-1135.37451171875	-239.7248687744141	663.9119873046876	-1117.456665039063	-319.0094299316407	617.8218994140626	-1135.906860351563	-374.2426452636719	468.9381408691407	-1123.034423828125	-364.8103942871094	420.4021606445314	-975.869323730469	-302.2631835937501	287.0527954101563	-1067.539184570313	-325.0052795410157	252.7898864746094	-1145.240112304688	-300.6084899902344	245.8013000488282	-1106.955078125	-300.1355895996094	162.7877502441407	-1086.311767578125	-346.5240478515626	82.31774902343751	-1148.088134765625	-327.6108703613282	85.70963287353517	-1064.93408203125	-397.339569091797	54.69952774047853	-1114.377807617188	-208.3679351806641	56.22701644897462	-1073.74609375	-194.2021942138672	55.76400375366212	-1120.0888671875	-230.6457214355469	33.40313339233399	-1171.41064453125	-343.9533081054688	711.3451538085939	-707.4825439453126	-308.9322509765626	654.4692382812501	-698.6094970703126	-275.8792114257813	656.5213623046876	-700.2138671875001	-338.2972106933594	576.8451538085939	-704.5177001953126	-336.4156494140626	463.8900146484376	-707.6171264648439	-311.4058532714844	440.180145263672	-851.800231933594	-293.5374755859376	308.8290100097657	-726.2319335937501	-364.2978210449219	238.0140991210938	-675.8585815429689	-319.6643676757813	234.1319274902344	-690.0998535156251	-307.7363281250001	181.4208221435547	-715.1636962890626	-380.7005310058594	82.3115921020508	-689.0256958007814	-342.1367797851563	88.73413085937501	-763.6968994140626	-418.476043701172	53.31206130981447	-731.1494140625001	-221.3670196533204	55.25515365600587	-730.5189208984376	-224.2950897216797	57.54270172119142	-680.4522705078126	-266.6753234863282	33.92722320556641	-637.6259155273439	nan	nan	nan	
